# xmcd
#
# Track frame offsets:
#	150
#	17451
#	33689
#	50733
#	65485
#	85581
#	103602
#	119888
#	135841
#	153559
#	173475
#	194649
#	215811
#	232490
#	244035
#	260403
#	276098
#	295249
#	314079
#	328692
#
# Disc length: 4578
#
# Revision: 1
# Processed by: cddbd v1.5.1PL0 Copyright (c) Steve Scherf et al.
# Submitted via: audiograbber 1.82.02
# Normalized: r0:DSETVAR1
#
DISCID=3711e014
DTITLE=Various Artist - Blues and Soul The Soul Years 76-77 Vol 5
DYEAR=1900
DGENRE=
TTITLE0=Candi Staton - Young Hearts Run Free
TTITLE1=Dorothy Moore - Misty Blue
TTITLE2=Diana Ross - Love Hangover
TTITLE3=Rose Royce - Carwash
TTITLE4=The Manhattans - Kiss And Say Goodbye
TTITLE5=James Brown - Get Up Offa That Thing
TTITLE6=The O'Jays - I Love Music
TTITLE7=Tavares - Heaven Must Be Missing An Angel
TTITLE8=Brass Construction - Movin'
TTITLE9=Johnnie Taylor - Disco Lady
TTITLE10=Johnny Guitar Watson - I Need It
TTITLE11=The Chi-Lites - You Don't Have To Go
TTITLE12=The Emotions - The Best Of My Love
TTITLE13=Deniece Williams - Free
TTITLE14=Thelma Houston - Don't Leave Me This Way
TTITLE15=Rose Royce - I Wanna Get Next To You
TTITLE16=Marvin Gaye - Got To Give It Up
TTITLE17=The Floaters - Float On
TTITLE18=Gladys Knight - Baby Don't Change Your Mind
TTITLE19=T Connection - Do What You Wanna Do
EXTD=
EXTT0=
EXTT1=
EXTT2=
EXTT3=
EXTT4=
EXTT5=
EXTT6=
EXTT7=
EXTT8=
EXTT9=
EXTT10=
EXTT11=
EXTT12=
EXTT13=
EXTT14=
EXTT15=
EXTT16=
EXTT17=
EXTT18=
EXTT19=
PLAYORDER=
